<mxfile host="app.diagrams.net" agent="Mozilla/5.0 (Windows NT 10.0; Win64; x64) AppleWebKit/537.36 (KHTML, like Gecko) Chrome/131.0.0.0 Safari/537.36 Edg/131.0.0.0" version="27.2.0">
  <diagram name="第 1 页" id="IyyMub72g_3KVVHAg3CK">
    <mxGraphModel dx="1426" dy="891" grid="0" gridSize="10" guides="1" tooltips="1" connect="1" arrows="1" fold="1" page="1" pageScale="1" pageWidth="827" pageHeight="1169" math="0" shadow="0">
      <root>
        <mxCell id="0" />
        <mxCell id="1" parent="0" />
        <mxCell id="HScPxeddGNzz1OgHfQ57-1" value="全DBS阶段" style="whiteSpace=wrap;strokeWidth=2;" parent="1" vertex="1">
          <mxGeometry x="161" y="1626" width="471" height="999" as="geometry" />
        </mxCell>
        <mxCell id="HScPxeddGNzz1OgHfQ57-2" value="梯度引导阶段" style="whiteSpace=wrap;strokeWidth=2;" parent="1" vertex="1">
          <mxGeometry x="161" y="258" width="473" height="1318" as="geometry" />
        </mxCell>
        <mxCell id="HScPxeddGNzz1OgHfQ57-3" value="开始" style="whiteSpace=wrap;strokeWidth=2;" parent="1" vertex="1">
          <mxGeometry x="372" y="50" width="92" height="54" as="geometry" />
        </mxCell>
        <mxCell id="HScPxeddGNzz1OgHfQ57-4" value="设置初始结构" style="whiteSpace=wrap;strokeWidth=2;" parent="1" vertex="1">
          <mxGeometry x="340" y="154" width="156" height="54" as="geometry" />
        </mxCell>
        <mxCell id="HScPxeddGNzz1OgHfQ57-5" value="进入梯度引导阶段" style="whiteSpace=wrap;strokeWidth=2;" parent="1" vertex="1">
          <mxGeometry x="324" y="283" width="188" height="54" as="geometry" />
        </mxCell>
        <mxCell id="HScPxeddGNzz1OgHfQ57-6" value="计算梯度矩阵" style="whiteSpace=wrap;strokeWidth=2;" parent="1" vertex="1">
          <mxGeometry x="340" y="387" width="156" height="54" as="geometry" />
        </mxCell>
        <mxCell id="HScPxeddGNzz1OgHfQ57-7" value="分析梯度矩阵" style="whiteSpace=wrap;strokeWidth=2;" parent="1" vertex="1">
          <mxGeometry x="283" y="491" width="156" height="54" as="geometry" />
        </mxCell>
        <mxCell id="HScPxeddGNzz1OgHfQ57-8" value="筛选翻转候选" style="whiteSpace=wrap;strokeWidth=2;" parent="1" vertex="1">
          <mxGeometry x="283" y="595" width="156" height="54" as="geometry" />
        </mxCell>
        <mxCell id="HScPxeddGNzz1OgHfQ57-9" value="执行一批翻转" style="whiteSpace=wrap;strokeWidth=2;" parent="1" vertex="1">
          <mxGeometry x="283" y="699" width="156" height="54" as="geometry" />
        </mxCell>
        <mxCell id="HScPxeddGNzz1OgHfQ57-10" value="计算宽带FOM" style="whiteSpace=wrap;strokeWidth=2;" parent="1" vertex="1">
          <mxGeometry x="284" y="826" width="155" height="54" as="geometry" />
        </mxCell>
        <mxCell id="HScPxeddGNzz1OgHfQ57-11" value="FOM提升?" style="rhombus;strokeWidth=2;whiteSpace=wrap;" parent="1" vertex="1">
          <mxGeometry x="300" y="930" width="122" height="122" as="geometry" />
        </mxCell>
        <mxCell id="HScPxeddGNzz1OgHfQ57-12" value="接受翻转" style="whiteSpace=wrap;strokeWidth=2;" parent="1" vertex="1">
          <mxGeometry x="212" y="1125" width="124" height="54" as="geometry" />
        </mxCell>
        <mxCell id="HScPxeddGNzz1OgHfQ57-13" value="回退翻转" style="whiteSpace=wrap;strokeWidth=2;" parent="1" vertex="1">
          <mxGeometry x="386" y="1125" width="124" height="54" as="geometry" />
        </mxCell>
        <mxCell id="HScPxeddGNzz1OgHfQ57-14" value="宽带FOM提升达到阈值?" style="rhombus;strokeWidth=2;whiteSpace=wrap;" parent="1" vertex="1">
          <mxGeometry x="350" y="1229" width="195" height="195" as="geometry" />
        </mxCell>
        <mxCell id="HScPxeddGNzz1OgHfQ57-15" value="切换到全DBS阶段" style="whiteSpace=wrap;strokeWidth=2;" parent="1" vertex="1">
          <mxGeometry x="356" y="1497" width="183" height="54" as="geometry" />
        </mxCell>
        <mxCell id="HScPxeddGNzz1OgHfQ57-16" value="遍历所有像素" style="whiteSpace=wrap;strokeWidth=2;" parent="1" vertex="1">
          <mxGeometry x="369" y="1651" width="156" height="54" as="geometry" />
        </mxCell>
        <mxCell id="HScPxeddGNzz1OgHfQ57-17" value="翻转当前像素" style="whiteSpace=wrap;strokeWidth=2;" parent="1" vertex="1">
          <mxGeometry x="283" y="1755" width="156" height="54" as="geometry" />
        </mxCell>
        <mxCell id="HScPxeddGNzz1OgHfQ57-18" value="计算宽带FOM" style="whiteSpace=wrap;strokeWidth=2;" parent="1" vertex="1">
          <mxGeometry x="284" y="1859" width="155" height="54" as="geometry" />
        </mxCell>
        <mxCell id="HScPxeddGNzz1OgHfQ57-19" value="FOM提升?" style="rhombus;strokeWidth=2;whiteSpace=wrap;" parent="1" vertex="1">
          <mxGeometry x="300" y="1986" width="122" height="122" as="geometry" />
        </mxCell>
        <mxCell id="HScPxeddGNzz1OgHfQ57-20" value="接受翻转" style="whiteSpace=wrap;strokeWidth=2;" parent="1" vertex="1">
          <mxGeometry x="212" y="2182" width="124" height="54" as="geometry" />
        </mxCell>
        <mxCell id="HScPxeddGNzz1OgHfQ57-21" value="回退翻转" style="whiteSpace=wrap;strokeWidth=2;" parent="1" vertex="1">
          <mxGeometry x="386" y="2182" width="124" height="54" as="geometry" />
        </mxCell>
        <mxCell id="HScPxeddGNzz1OgHfQ57-22" value="一整轮结构刚转完没有提升？" style="rhombus;strokeWidth=2;whiteSpace=wrap;" parent="1" vertex="1">
          <mxGeometry x="324" y="2286" width="188" height="188" as="geometry" />
        </mxCell>
        <mxCell id="HScPxeddGNzz1OgHfQ57-23" value="输出最终结构" style="whiteSpace=wrap;strokeWidth=2;" parent="1" vertex="1">
          <mxGeometry x="340" y="2546" width="156" height="54" as="geometry" />
        </mxCell>
        <mxCell id="HScPxeddGNzz1OgHfQ57-24" value="结束" style="whiteSpace=wrap;strokeWidth=2;" parent="1" vertex="1">
          <mxGeometry x="372" y="2675" width="92" height="54" as="geometry" />
        </mxCell>
        <mxCell id="HScPxeddGNzz1OgHfQ57-25" value="" style="curved=1;startArrow=none;endArrow=block;exitX=0.49;exitY=1;entryX=0.5;entryY=0;rounded=0;fontSize=12;startSize=8;endSize=8;" parent="1" source="HScPxeddGNzz1OgHfQ57-3" target="HScPxeddGNzz1OgHfQ57-4" edge="1">
          <mxGeometry relative="1" as="geometry">
            <Array as="points" />
          </mxGeometry>
        </mxCell>
        <mxCell id="HScPxeddGNzz1OgHfQ57-26" value="" style="curved=1;startArrow=none;endArrow=block;exitX=0.5;exitY=1;entryX=0.5;entryY=0;rounded=0;fontSize=12;startSize=8;endSize=8;" parent="1" source="HScPxeddGNzz1OgHfQ57-4" target="HScPxeddGNzz1OgHfQ57-5" edge="1">
          <mxGeometry relative="1" as="geometry">
            <Array as="points" />
          </mxGeometry>
        </mxCell>
        <mxCell id="HScPxeddGNzz1OgHfQ57-27" value="" style="curved=1;startArrow=none;endArrow=block;exitX=0.5;exitY=1;entryX=0.5;entryY=0;rounded=0;fontSize=12;startSize=8;endSize=8;" parent="1" source="HScPxeddGNzz1OgHfQ57-5" target="HScPxeddGNzz1OgHfQ57-6" edge="1">
          <mxGeometry relative="1" as="geometry">
            <Array as="points" />
          </mxGeometry>
        </mxCell>
        <mxCell id="HScPxeddGNzz1OgHfQ57-28" value="" style="curved=1;startArrow=none;endArrow=block;exitX=0.31;exitY=1;entryX=0.5;entryY=0;rounded=0;fontSize=12;startSize=8;endSize=8;" parent="1" source="HScPxeddGNzz1OgHfQ57-6" target="HScPxeddGNzz1OgHfQ57-7" edge="1">
          <mxGeometry relative="1" as="geometry">
            <Array as="points">
              <mxPoint x="361" y="466" />
            </Array>
          </mxGeometry>
        </mxCell>
        <mxCell id="HScPxeddGNzz1OgHfQ57-29" value="" style="curved=1;startArrow=none;endArrow=block;exitX=0.5;exitY=1;entryX=0.5;entryY=0;rounded=0;fontSize=12;startSize=8;endSize=8;" parent="1" source="HScPxeddGNzz1OgHfQ57-7" target="HScPxeddGNzz1OgHfQ57-8" edge="1">
          <mxGeometry relative="1" as="geometry">
            <Array as="points" />
          </mxGeometry>
        </mxCell>
        <mxCell id="HScPxeddGNzz1OgHfQ57-30" value="" style="curved=1;startArrow=none;endArrow=block;exitX=0.5;exitY=1;entryX=0.5;entryY=0;rounded=0;fontSize=12;startSize=8;endSize=8;" parent="1" source="HScPxeddGNzz1OgHfQ57-8" target="HScPxeddGNzz1OgHfQ57-9" edge="1">
          <mxGeometry relative="1" as="geometry">
            <Array as="points" />
          </mxGeometry>
        </mxCell>
        <mxCell id="HScPxeddGNzz1OgHfQ57-31" value="" style="curved=1;startArrow=none;endArrow=block;exitX=0.5;exitY=1;entryX=0.5;entryY=0;rounded=0;fontSize=12;startSize=8;endSize=8;" parent="1" source="HScPxeddGNzz1OgHfQ57-9" target="HScPxeddGNzz1OgHfQ57-10" edge="1">
          <mxGeometry relative="1" as="geometry">
            <Array as="points" />
          </mxGeometry>
        </mxCell>
        <mxCell id="HScPxeddGNzz1OgHfQ57-32" value="" style="curved=1;startArrow=none;endArrow=block;exitX=0.5;exitY=1;entryX=0.5;entryY=0;rounded=0;fontSize=12;startSize=8;endSize=8;" parent="1" source="HScPxeddGNzz1OgHfQ57-10" target="HScPxeddGNzz1OgHfQ57-11" edge="1">
          <mxGeometry relative="1" as="geometry">
            <Array as="points" />
          </mxGeometry>
        </mxCell>
        <mxCell id="HScPxeddGNzz1OgHfQ57-33" value="是" style="curved=1;startArrow=none;endArrow=block;exitX=0.05;exitY=1;entryX=0.5;entryY=0.01;rounded=0;fontSize=12;startSize=8;endSize=8;" parent="1" source="HScPxeddGNzz1OgHfQ57-11" target="HScPxeddGNzz1OgHfQ57-12" edge="1">
          <mxGeometry relative="1" as="geometry">
            <Array as="points">
              <mxPoint x="274" y="1089" />
            </Array>
          </mxGeometry>
        </mxCell>
        <mxCell id="HScPxeddGNzz1OgHfQ57-34" value="否" style="curved=1;startArrow=none;endArrow=block;exitX=0.95;exitY=1;entryX=0.5;entryY=0.01;rounded=0;fontSize=12;startSize=8;endSize=8;" parent="1" source="HScPxeddGNzz1OgHfQ57-11" target="HScPxeddGNzz1OgHfQ57-13" edge="1">
          <mxGeometry relative="1" as="geometry">
            <Array as="points">
              <mxPoint x="448" y="1089" />
            </Array>
          </mxGeometry>
        </mxCell>
        <mxCell id="HScPxeddGNzz1OgHfQ57-35" value="" style="curved=1;startArrow=none;endArrow=block;exitX=0.5;exitY=1.01;entryX=0;entryY=0.15;rounded=0;fontSize=12;startSize=8;endSize=8;" parent="1" source="HScPxeddGNzz1OgHfQ57-12" target="HScPxeddGNzz1OgHfQ57-14" edge="1">
          <mxGeometry relative="1" as="geometry">
            <Array as="points">
              <mxPoint x="274" y="1204" />
            </Array>
          </mxGeometry>
        </mxCell>
        <mxCell id="HScPxeddGNzz1OgHfQ57-36" value="" style="curved=1;startArrow=none;endArrow=block;exitX=0.5;exitY=1.01;entryX=0.5;entryY=0;rounded=0;fontSize=12;startSize=8;endSize=8;" parent="1" source="HScPxeddGNzz1OgHfQ57-13" target="HScPxeddGNzz1OgHfQ57-14" edge="1">
          <mxGeometry relative="1" as="geometry">
            <Array as="points">
              <mxPoint x="448" y="1204" />
            </Array>
          </mxGeometry>
        </mxCell>
        <mxCell id="HScPxeddGNzz1OgHfQ57-37" value="否" style="curved=1;startArrow=none;endArrow=block;exitX=0.94;exitY=0;entryX=0.95;entryY=1;rounded=0;fontSize=12;startSize=8;endSize=8;" parent="1" source="HScPxeddGNzz1OgHfQ57-14" target="HScPxeddGNzz1OgHfQ57-6" edge="1">
          <mxGeometry relative="1" as="geometry">
            <Array as="points">
              <mxPoint x="555" y="1204" />
              <mxPoint x="555" y="466" />
            </Array>
          </mxGeometry>
        </mxCell>
        <mxCell id="HScPxeddGNzz1OgHfQ57-38" value="是" style="curved=1;startArrow=none;endArrow=block;exitX=0.5;exitY=1;entryX=0.5;entryY=0;rounded=0;fontSize=12;startSize=8;endSize=8;" parent="1" source="HScPxeddGNzz1OgHfQ57-14" target="HScPxeddGNzz1OgHfQ57-15" edge="1">
          <mxGeometry relative="1" as="geometry">
            <Array as="points" />
          </mxGeometry>
        </mxCell>
        <mxCell id="HScPxeddGNzz1OgHfQ57-39" value="" style="curved=1;startArrow=none;endArrow=block;exitX=0.5;exitY=1;entryX=0.5;entryY=0;rounded=0;fontSize=12;startSize=8;endSize=8;" parent="1" source="HScPxeddGNzz1OgHfQ57-15" target="HScPxeddGNzz1OgHfQ57-16" edge="1">
          <mxGeometry relative="1" as="geometry">
            <Array as="points" />
          </mxGeometry>
        </mxCell>
        <mxCell id="HScPxeddGNzz1OgHfQ57-40" value="" style="curved=1;startArrow=none;endArrow=block;exitX=0.21;exitY=1;entryX=0.5;entryY=0;rounded=0;fontSize=12;startSize=8;endSize=8;" parent="1" source="HScPxeddGNzz1OgHfQ57-16" target="HScPxeddGNzz1OgHfQ57-17" edge="1">
          <mxGeometry relative="1" as="geometry">
            <Array as="points">
              <mxPoint x="361" y="1730" />
            </Array>
          </mxGeometry>
        </mxCell>
        <mxCell id="HScPxeddGNzz1OgHfQ57-41" value="" style="curved=1;startArrow=none;endArrow=block;exitX=0.5;exitY=1;entryX=0.5;entryY=0;rounded=0;fontSize=12;startSize=8;endSize=8;" parent="1" source="HScPxeddGNzz1OgHfQ57-17" target="HScPxeddGNzz1OgHfQ57-18" edge="1">
          <mxGeometry relative="1" as="geometry">
            <Array as="points" />
          </mxGeometry>
        </mxCell>
        <mxCell id="HScPxeddGNzz1OgHfQ57-42" value="" style="curved=1;startArrow=none;endArrow=block;exitX=0.5;exitY=1;entryX=0.5;entryY=0;rounded=0;fontSize=12;startSize=8;endSize=8;" parent="1" source="HScPxeddGNzz1OgHfQ57-18" target="HScPxeddGNzz1OgHfQ57-19" edge="1">
          <mxGeometry relative="1" as="geometry">
            <Array as="points" />
          </mxGeometry>
        </mxCell>
        <mxCell id="HScPxeddGNzz1OgHfQ57-43" value="是" style="curved=1;startArrow=none;endArrow=block;exitX=0.05;exitY=1;entryX=0.5;entryY=-0.01;rounded=0;fontSize=12;startSize=8;endSize=8;" parent="1" source="HScPxeddGNzz1OgHfQ57-19" target="HScPxeddGNzz1OgHfQ57-20" edge="1">
          <mxGeometry relative="1" as="geometry">
            <Array as="points">
              <mxPoint x="274" y="2145" />
            </Array>
          </mxGeometry>
        </mxCell>
        <mxCell id="HScPxeddGNzz1OgHfQ57-44" value="否" style="curved=1;startArrow=none;endArrow=block;exitX=0.95;exitY=1;entryX=0.5;entryY=-0.01;rounded=0;fontSize=12;startSize=8;endSize=8;" parent="1" source="HScPxeddGNzz1OgHfQ57-19" target="HScPxeddGNzz1OgHfQ57-21" edge="1">
          <mxGeometry relative="1" as="geometry">
            <Array as="points">
              <mxPoint x="448" y="2145" />
            </Array>
          </mxGeometry>
        </mxCell>
        <mxCell id="HScPxeddGNzz1OgHfQ57-45" value="" style="curved=1;startArrow=none;endArrow=block;exitX=0.5;exitY=0.99;entryX=0;entryY=0.08;rounded=0;fontSize=12;startSize=8;endSize=8;" parent="1" source="HScPxeddGNzz1OgHfQ57-20" target="HScPxeddGNzz1OgHfQ57-22" edge="1">
          <mxGeometry relative="1" as="geometry">
            <Array as="points">
              <mxPoint x="274" y="2261" />
            </Array>
          </mxGeometry>
        </mxCell>
        <mxCell id="HScPxeddGNzz1OgHfQ57-46" value="" style="curved=1;startArrow=none;endArrow=block;exitX=0.5;exitY=0.99;entryX=0.63;entryY=0;rounded=0;fontSize=12;startSize=8;endSize=8;" parent="1" source="HScPxeddGNzz1OgHfQ57-21" target="HScPxeddGNzz1OgHfQ57-22" edge="1">
          <mxGeometry relative="1" as="geometry">
            <Array as="points">
              <mxPoint x="448" y="2261" />
            </Array>
          </mxGeometry>
        </mxCell>
        <mxCell id="HScPxeddGNzz1OgHfQ57-47" value="否" style="curved=1;startArrow=none;endArrow=block;exitX=1;exitY=0.06;entryX=0.85;entryY=1;rounded=0;fontSize=12;startSize=8;endSize=8;" parent="1" source="HScPxeddGNzz1OgHfQ57-22" target="HScPxeddGNzz1OgHfQ57-16" edge="1">
          <mxGeometry relative="1" as="geometry">
            <Array as="points">
              <mxPoint x="553" y="2261" />
              <mxPoint x="553" y="1730" />
            </Array>
          </mxGeometry>
        </mxCell>
        <mxCell id="HScPxeddGNzz1OgHfQ57-48" value="是" style="curved=1;startArrow=none;endArrow=block;exitX=0.5;exitY=1;entryX=0.5;entryY=0.01;rounded=0;fontSize=12;startSize=8;endSize=8;" parent="1" source="HScPxeddGNzz1OgHfQ57-22" target="HScPxeddGNzz1OgHfQ57-23" edge="1">
          <mxGeometry relative="1" as="geometry">
            <Array as="points" />
          </mxGeometry>
        </mxCell>
        <mxCell id="HScPxeddGNzz1OgHfQ57-49" value="" style="curved=1;startArrow=none;endArrow=block;exitX=0.5;exitY=1.01;entryX=0.49;entryY=0.01;rounded=0;fontSize=12;startSize=8;endSize=8;" parent="1" source="HScPxeddGNzz1OgHfQ57-23" target="HScPxeddGNzz1OgHfQ57-24" edge="1">
          <mxGeometry relative="1" as="geometry">
            <Array as="points" />
          </mxGeometry>
        </mxCell>
        <mxCell id="HScPxeddGNzz1OgHfQ57-90" value="优化控制器" style="shape=umlLifeline;perimeter=lifelinePerimeter;whiteSpace=wrap;container=1;dropTarget=0;collapsible=0;recursiveResize=0;outlineConnect=0;portConstraint=eastwest;newEdgeStyle={&quot;edgeStyle&quot;:&quot;elbowEdgeStyle&quot;,&quot;elbow&quot;:&quot;vertical&quot;,&quot;curved&quot;:0,&quot;rounded&quot;:0};size=65;" parent="1" vertex="1">
          <mxGeometry x="173" y="2820" width="150" height="1928" as="geometry" />
        </mxCell>
        <mxCell id="HScPxeddGNzz1OgHfQ57-91" value="FDTD仿真器" style="shape=umlLifeline;perimeter=lifelinePerimeter;whiteSpace=wrap;container=1;dropTarget=0;collapsible=0;recursiveResize=0;outlineConnect=0;portConstraint=eastwest;newEdgeStyle={&quot;edgeStyle&quot;:&quot;elbowEdgeStyle&quot;,&quot;elbow&quot;:&quot;vertical&quot;,&quot;curved&quot;:0,&quot;rounded&quot;:0};size=65;" parent="1" vertex="1">
          <mxGeometry x="458" y="2820" width="150" height="1928" as="geometry" />
        </mxCell>
        <mxCell id="HScPxeddGNzz1OgHfQ57-92" value="梯度计算模块" style="shape=umlLifeline;perimeter=lifelinePerimeter;whiteSpace=wrap;container=1;dropTarget=0;collapsible=0;recursiveResize=0;outlineConnect=0;portConstraint=eastwest;newEdgeStyle={&quot;edgeStyle&quot;:&quot;elbowEdgeStyle&quot;,&quot;elbow&quot;:&quot;vertical&quot;,&quot;curved&quot;:0,&quot;rounded&quot;:0};size=65;" parent="1" vertex="1">
          <mxGeometry x="672" y="2820" width="150" height="1928" as="geometry" />
        </mxCell>
        <mxCell id="HScPxeddGNzz1OgHfQ57-93" value="alt" style="shape=umlFrame;dashed=1;pointerEvents=0;dropTarget=0;strokeColor=#B3B3B3;height=20;width=30" parent="1" vertex="1">
          <mxGeometry x="164" y="3802" width="380" height="226" as="geometry" />
        </mxCell>
        <mxCell id="HScPxeddGNzz1OgHfQ57-94" value="[FOM提升]" style="text;strokeColor=none;fillColor=none;align=center;verticalAlign=middle;whiteSpace=wrap;" parent="HScPxeddGNzz1OgHfQ57-93" vertex="1">
          <mxGeometry x="30" width="350" height="20" as="geometry" />
        </mxCell>
        <mxCell id="HScPxeddGNzz1OgHfQ57-95" value="[FOM未提升]" style="shape=line;dashed=1;whiteSpace=wrap;verticalAlign=top;labelPosition=center;verticalLabelPosition=middle;align=center;strokeColor=#B3B3B3;" parent="HScPxeddGNzz1OgHfQ57-93" vertex="1">
          <mxGeometry y="133" width="380" height="4" as="geometry" />
        </mxCell>
        <mxCell id="HScPxeddGNzz1OgHfQ57-96" value="loop" style="shape=umlFrame;dashed=1;pointerEvents=0;dropTarget=0;strokeColor=#000000;height=20;width=40;strokeWidth=2;" parent="1" vertex="1">
          <mxGeometry x="154" y="3539" width="400" height="499" as="geometry" />
        </mxCell>
        <mxCell id="HScPxeddGNzz1OgHfQ57-97" value="[翻转操作循环]" style="text;strokeColor=none;fillColor=none;align=center;verticalAlign=middle;whiteSpace=wrap;" parent="HScPxeddGNzz1OgHfQ57-96" vertex="1">
          <mxGeometry x="40" width="360" height="20" as="geometry" />
        </mxCell>
        <mxCell id="HScPxeddGNzz1OgHfQ57-98" value="alt" style="shape=umlFrame;dashed=1;pointerEvents=0;dropTarget=0;strokeColor=#B3B3B3;height=20;width=30" parent="1" vertex="1">
          <mxGeometry x="164" y="4130" width="380" height="238" as="geometry" />
        </mxCell>
        <mxCell id="HScPxeddGNzz1OgHfQ57-99" value="[收敛(提升&lt;阈值)]" style="text;strokeColor=none;fillColor=none;align=center;verticalAlign=middle;whiteSpace=wrap;" parent="HScPxeddGNzz1OgHfQ57-98" vertex="1">
          <mxGeometry x="30" width="350" height="20" as="geometry" />
        </mxCell>
        <mxCell id="HScPxeddGNzz1OgHfQ57-100" value="[未收敛]" style="shape=line;dashed=1;whiteSpace=wrap;verticalAlign=top;labelPosition=center;verticalLabelPosition=middle;align=center;strokeColor=#B3B3B3;" parent="HScPxeddGNzz1OgHfQ57-98" vertex="1">
          <mxGeometry y="142" width="380" height="4" as="geometry" />
        </mxCell>
        <mxCell id="HScPxeddGNzz1OgHfQ57-101" value="loop" style="shape=umlFrame;dashed=1;pointerEvents=0;dropTarget=0;strokeColor=#000000;height=20;width=40;strokeWidth=2;dashPattern=8 8;" parent="1" vertex="1">
          <mxGeometry x="144" y="2999" width="614" height="1379" as="geometry" />
        </mxCell>
        <mxCell id="HScPxeddGNzz1OgHfQ57-102" value="[梯度引导阶段]" style="text;strokeColor=none;fillColor=none;align=center;verticalAlign=middle;whiteSpace=wrap;" parent="HScPxeddGNzz1OgHfQ57-101" vertex="1">
          <mxGeometry x="40" width="574" height="20" as="geometry" />
        </mxCell>
        <mxCell id="HScPxeddGNzz1OgHfQ57-103" value="loop" style="shape=umlFrame;dashed=1;pointerEvents=0;dropTarget=0;strokeColor=#000000;height=20;width=40;strokeWidth=2;" parent="1" vertex="1">
          <mxGeometry x="164" y="4388" width="380" height="265" as="geometry" />
        </mxCell>
        <mxCell id="HScPxeddGNzz1OgHfQ57-104" value="[全DBS阶段]" style="text;strokeColor=none;fillColor=none;align=center;verticalAlign=middle;whiteSpace=wrap;" parent="HScPxeddGNzz1OgHfQ57-103" vertex="1">
          <mxGeometry x="40" width="340" height="20" as="geometry" />
        </mxCell>
        <mxCell id="HScPxeddGNzz1OgHfQ57-105" value="设置初始结构" style="verticalAlign=bottom;edgeStyle=elbowEdgeStyle;elbow=vertical;curved=0;rounded=0;endArrow=block;fontSize=12;startSize=8;endSize=8;" parent="1" source="HScPxeddGNzz1OgHfQ57-90" target="HScPxeddGNzz1OgHfQ57-91" edge="1">
          <mxGeometry relative="1" as="geometry">
            <Array as="points">
              <mxPoint x="399" y="2927" />
            </Array>
          </mxGeometry>
        </mxCell>
        <mxCell id="HScPxeddGNzz1OgHfQ57-106" value="结构设置确认" style="verticalAlign=bottom;edgeStyle=elbowEdgeStyle;elbow=vertical;curved=0;rounded=0;dashed=1;dashPattern=2 3;endArrow=block;fontSize=12;startSize=8;endSize=8;" parent="1" source="HScPxeddGNzz1OgHfQ57-91" target="HScPxeddGNzz1OgHfQ57-90" edge="1">
          <mxGeometry relative="1" as="geometry">
            <Array as="points">
              <mxPoint x="402" y="2979" />
            </Array>
          </mxGeometry>
        </mxCell>
        <mxCell id="HScPxeddGNzz1OgHfQ57-107" value="启用1550nm单点光源" style="verticalAlign=bottom;edgeStyle=elbowEdgeStyle;elbow=vertical;curved=0;rounded=0;endArrow=block;fontSize=12;startSize=8;endSize=8;" parent="1" source="HScPxeddGNzz1OgHfQ57-90" target="HScPxeddGNzz1OgHfQ57-91" edge="1">
          <mxGeometry relative="1" as="geometry">
            <Array as="points">
              <mxPoint x="399" y="3086" />
            </Array>
          </mxGeometry>
        </mxCell>
        <mxCell id="HScPxeddGNzz1OgHfQ57-108" value="返回电场E(1550nm)" style="verticalAlign=bottom;edgeStyle=elbowEdgeStyle;elbow=vertical;curved=0;rounded=0;dashed=1;dashPattern=2 3;endArrow=block;fontSize=12;startSize=8;endSize=8;" parent="1" source="HScPxeddGNzz1OgHfQ57-91" target="HScPxeddGNzz1OgHfQ57-92" edge="1">
          <mxGeometry relative="1" as="geometry">
            <Array as="points">
              <mxPoint x="649" y="3144" />
            </Array>
          </mxGeometry>
        </mxCell>
        <mxCell id="HScPxeddGNzz1OgHfQ57-109" value="启用1550nm伴随源(相位180°)" style="verticalAlign=bottom;edgeStyle=elbowEdgeStyle;elbow=vertical;curved=0;rounded=0;endArrow=block;fontSize=12;startSize=8;endSize=8;" parent="1" source="HScPxeddGNzz1OgHfQ57-90" target="HScPxeddGNzz1OgHfQ57-91" edge="1">
          <mxGeometry relative="1" as="geometry">
            <Array as="points">
              <mxPoint x="399" y="3202" />
            </Array>
          </mxGeometry>
        </mxCell>
        <mxCell id="HScPxeddGNzz1OgHfQ57-110" value="返回伴随场λ" style="verticalAlign=bottom;edgeStyle=elbowEdgeStyle;elbow=vertical;curved=0;rounded=0;dashed=1;dashPattern=2 3;endArrow=block;fontSize=12;startSize=8;endSize=8;" parent="1" source="HScPxeddGNzz1OgHfQ57-91" target="HScPxeddGNzz1OgHfQ57-92" edge="1">
          <mxGeometry relative="1" as="geometry">
            <Array as="points">
              <mxPoint x="649" y="3254" />
            </Array>
          </mxGeometry>
        </mxCell>
        <mxCell id="HScPxeddGNzz1OgHfQ57-111" value="计算梯度矩阵(24x24)" style="verticalAlign=bottom;edgeStyle=elbowEdgeStyle;elbow=vertical;curved=0;rounded=0;dashed=1;dashPattern=2 3;endArrow=block;fontSize=12;startSize=8;endSize=8;" parent="1" source="HScPxeddGNzz1OgHfQ57-92" target="HScPxeddGNzz1OgHfQ57-90" edge="1">
          <mxGeometry relative="1" as="geometry">
            <Array as="points">
              <mxPoint x="509" y="3312" />
            </Array>
          </mxGeometry>
        </mxCell>
        <mxCell id="HScPxeddGNzz1OgHfQ57-112" value="分析梯度矩阵" style="curved=1;endArrow=block;rounded=0;fontSize=12;startSize=8;endSize=8;" parent="1" source="HScPxeddGNzz1OgHfQ57-90" target="HScPxeddGNzz1OgHfQ57-90" edge="1">
          <mxGeometry relative="1" as="geometry">
            <Array as="points">
              <mxPoint x="299" y="3364" />
              <mxPoint x="299" y="3394" />
            </Array>
          </mxGeometry>
        </mxCell>
        <mxCell id="HScPxeddGNzz1OgHfQ57-113" value="执行一批翻转" style="verticalAlign=bottom;edgeStyle=elbowEdgeStyle;elbow=vertical;curved=0;rounded=0;endArrow=block;fontSize=12;startSize=8;endSize=8;" parent="1" source="HScPxeddGNzz1OgHfQ57-90" target="HScPxeddGNzz1OgHfQ57-91" edge="1">
          <mxGeometry relative="1" as="geometry">
            <Array as="points">
              <mxPoint x="399" y="3620" />
            </Array>
          </mxGeometry>
        </mxCell>
        <mxCell id="HScPxeddGNzz1OgHfQ57-114" value="结构更新确认" style="verticalAlign=bottom;edgeStyle=elbowEdgeStyle;elbow=vertical;curved=0;rounded=0;dashed=1;dashPattern=2 3;endArrow=block;fontSize=12;startSize=8;endSize=8;" parent="1" source="HScPxeddGNzz1OgHfQ57-91" target="HScPxeddGNzz1OgHfQ57-90" edge="1">
          <mxGeometry relative="1" as="geometry">
            <Array as="points">
              <mxPoint x="402" y="3672" />
            </Array>
          </mxGeometry>
        </mxCell>
        <mxCell id="HScPxeddGNzz1OgHfQ57-115" value="启用C波段光源(21点)" style="verticalAlign=bottom;edgeStyle=elbowEdgeStyle;elbow=vertical;curved=0;rounded=0;endArrow=block;fontSize=12;startSize=8;endSize=8;" parent="1" source="HScPxeddGNzz1OgHfQ57-90" target="HScPxeddGNzz1OgHfQ57-91" edge="1">
          <mxGeometry relative="1" as="geometry">
            <Array as="points">
              <mxPoint x="399" y="3730" />
            </Array>
          </mxGeometry>
        </mxCell>
        <mxCell id="HScPxeddGNzz1OgHfQ57-116" value="返回宽带FOM" style="verticalAlign=bottom;edgeStyle=elbowEdgeStyle;elbow=vertical;curved=0;rounded=0;dashed=1;dashPattern=2 3;endArrow=block;fontSize=12;startSize=8;endSize=8;" parent="1" source="HScPxeddGNzz1OgHfQ57-91" target="HScPxeddGNzz1OgHfQ57-90" edge="1">
          <mxGeometry relative="1" as="geometry">
            <Array as="points">
              <mxPoint x="402" y="3782" />
            </Array>
          </mxGeometry>
        </mxCell>
        <mxCell id="HScPxeddGNzz1OgHfQ57-117" value="接受翻转" style="curved=1;endArrow=block;rounded=0;fontSize=12;startSize=8;endSize=8;" parent="1" source="HScPxeddGNzz1OgHfQ57-90" target="HScPxeddGNzz1OgHfQ57-90" edge="1">
          <mxGeometry relative="1" as="geometry">
            <Array as="points">
              <mxPoint x="299" y="3880" />
              <mxPoint x="299" y="3910" />
            </Array>
          </mxGeometry>
        </mxCell>
        <mxCell id="HScPxeddGNzz1OgHfQ57-118" value="回退翻转" style="verticalAlign=bottom;edgeStyle=elbowEdgeStyle;elbow=vertical;curved=0;rounded=0;endArrow=block;fontSize=12;startSize=8;endSize=8;" parent="1" source="HScPxeddGNzz1OgHfQ57-90" target="HScPxeddGNzz1OgHfQ57-91" edge="1">
          <mxGeometry relative="1" as="geometry">
            <Array as="points">
              <mxPoint x="399" y="4008" />
            </Array>
          </mxGeometry>
        </mxCell>
        <mxCell id="HScPxeddGNzz1OgHfQ57-119" value="检查收敛条件" style="curved=1;endArrow=block;rounded=0;fontSize=12;startSize=8;endSize=8;" parent="1" source="HScPxeddGNzz1OgHfQ57-90" target="HScPxeddGNzz1OgHfQ57-90" edge="1">
          <mxGeometry relative="1" as="geometry">
            <Array as="points">
              <mxPoint x="299" y="4080" />
              <mxPoint x="299" y="4110" />
            </Array>
          </mxGeometry>
        </mxCell>
        <mxCell id="HScPxeddGNzz1OgHfQ57-120" value="切换到全DBS阶段" style="curved=1;endArrow=block;rounded=0;fontSize=12;startSize=8;endSize=8;" parent="1" source="HScPxeddGNzz1OgHfQ57-90" target="HScPxeddGNzz1OgHfQ57-90" edge="1">
          <mxGeometry relative="1" as="geometry">
            <Array as="points">
              <mxPoint x="299" y="4217" />
              <mxPoint x="299" y="4247" />
            </Array>
          </mxGeometry>
        </mxCell>
        <mxCell id="HScPxeddGNzz1OgHfQ57-121" value="继续优化" style="verticalAlign=bottom;edgeStyle=elbowEdgeStyle;elbow=vertical;curved=0;rounded=0;endArrow=block;fontSize=12;startSize=8;endSize=8;" parent="1" source="HScPxeddGNzz1OgHfQ57-90" target="HScPxeddGNzz1OgHfQ57-91" edge="1">
          <mxGeometry relative="1" as="geometry">
            <Array as="points">
              <mxPoint x="399" y="4348" />
            </Array>
          </mxGeometry>
        </mxCell>
        <mxCell id="HScPxeddGNzz1OgHfQ57-122" value="遍历像素" style="verticalAlign=bottom;edgeStyle=elbowEdgeStyle;elbow=vertical;curved=0;rounded=0;endArrow=block;fontSize=12;startSize=8;endSize=8;" parent="1" source="HScPxeddGNzz1OgHfQ57-90" target="HScPxeddGNzz1OgHfQ57-91" edge="1">
          <mxGeometry relative="1" as="geometry">
            <Array as="points">
              <mxPoint x="399" y="4469" />
            </Array>
          </mxGeometry>
        </mxCell>
        <mxCell id="HScPxeddGNzz1OgHfQ57-123" value="返回翻转后FOM" style="verticalAlign=bottom;edgeStyle=elbowEdgeStyle;elbow=vertical;curved=0;rounded=0;dashed=1;dashPattern=2 3;endArrow=block;fontSize=12;startSize=8;endSize=8;" parent="1" source="HScPxeddGNzz1OgHfQ57-91" target="HScPxeddGNzz1OgHfQ57-90" edge="1">
          <mxGeometry relative="1" as="geometry">
            <Array as="points">
              <mxPoint x="402" y="4521" />
            </Array>
          </mxGeometry>
        </mxCell>
        <mxCell id="HScPxeddGNzz1OgHfQ57-124" value="决策是否接受" style="curved=1;endArrow=block;rounded=0;fontSize=12;startSize=8;endSize=8;" parent="1" source="HScPxeddGNzz1OgHfQ57-90" target="HScPxeddGNzz1OgHfQ57-90" edge="1">
          <mxGeometry relative="1" as="geometry">
            <Array as="points">
              <mxPoint x="299" y="4573" />
              <mxPoint x="299" y="4603" />
            </Array>
          </mxGeometry>
        </mxCell>
        <mxCell id="HScPxeddGNzz1OgHfQ57-125" value="梯度决策规则：&#xa;1. ∇&gt;δ: 硅区保持/孔区填孔&#xa;2. ∇&lt;-δ: 硅区打孔/孔区保持&#xa;3. |∇|&lt;ε: 跳过&#xa;4. 其它：随机翻转" style="fillColor=#ffff88;strokeColor=#9E916F;" parent="1" vertex="1">
          <mxGeometry x="273" y="3414" width="222" height="125" as="geometry" />
        </mxCell>
        <mxCell id="ZkNPWvKxlX2SHEktaDO0-1" value="全域DBS阶段" style="whiteSpace=wrap;strokeWidth=2;" vertex="1" parent="1">
          <mxGeometry x="157" y="7469" width="576" height="1212" as="geometry" />
        </mxCell>
        <mxCell id="ZkNPWvKxlX2SHEktaDO0-2" value="梯度引导阶段" style="whiteSpace=wrap;strokeWidth=2;" vertex="1" parent="1">
          <mxGeometry x="143" y="5122" width="602" height="2297" as="geometry" />
        </mxCell>
        <mxCell id="ZkNPWvKxlX2SHEktaDO0-3" value="开始" style="rounded=1;whiteSpace=wrap;arcSize=50;strokeWidth=2;" vertex="1" parent="1">
          <mxGeometry x="421" y="4929" width="57" height="39" as="geometry" />
        </mxCell>
        <mxCell id="ZkNPWvKxlX2SHEktaDO0-4" value="设置初始结构" style="whiteSpace=wrap;strokeWidth=2;" vertex="1" parent="1">
          <mxGeometry x="371" y="5018" width="156" height="54" as="geometry" />
        </mxCell>
        <mxCell id="ZkNPWvKxlX2SHEktaDO0-5" value="进入梯度引导阶段" style="whiteSpace=wrap;strokeWidth=2;" vertex="1" parent="1">
          <mxGeometry x="355" y="5147" width="188" height="54" as="geometry" />
        </mxCell>
        <mxCell id="ZkNPWvKxlX2SHEktaDO0-6" value="启用1550nm单点光源" style="whiteSpace=wrap;strokeWidth=2;" vertex="1" parent="1">
          <mxGeometry x="344" y="5251" width="212" height="54" as="geometry" />
        </mxCell>
        <mxCell id="ZkNPWvKxlX2SHEktaDO0-7" value="运行前向仿真获取电场E" style="whiteSpace=wrap;strokeWidth=2;" vertex="1" parent="1">
          <mxGeometry x="400" y="5355" width="229" height="54" as="geometry" />
        </mxCell>
        <mxCell id="ZkNPWvKxlX2SHEktaDO0-8" value="启用1550nm伴随源" style="whiteSpace=wrap;strokeWidth=2;" vertex="1" parent="1">
          <mxGeometry x="416" y="5459" width="196" height="54" as="geometry" />
        </mxCell>
        <mxCell id="ZkNPWvKxlX2SHEktaDO0-9" value="运行伴随仿真获取电场λ" style="whiteSpace=wrap;strokeWidth=2;" vertex="1" parent="1">
          <mxGeometry x="400" y="5563" width="228" height="54" as="geometry" />
        </mxCell>
        <mxCell id="ZkNPWvKxlX2SHEktaDO0-10" value="计算梯度矩阵∇FOM" style="whiteSpace=wrap;strokeWidth=2;" vertex="1" parent="1">
          <mxGeometry x="413" y="5667" width="203" height="54" as="geometry" />
        </mxCell>
        <mxCell id="ZkNPWvKxlX2SHEktaDO0-11" value="分析梯度矩阵" style="whiteSpace=wrap;strokeWidth=2;" vertex="1" parent="1">
          <mxGeometry x="416" y="5800" width="156" height="54" as="geometry" />
        </mxCell>
        <mxCell id="ZkNPWvKxlX2SHEktaDO0-12" value="筛选翻转候选像素" style="whiteSpace=wrap;strokeWidth=2;" vertex="1" parent="1">
          <mxGeometry x="380" y="5961" width="188" height="54" as="geometry" />
        </mxCell>
        <mxCell id="ZkNPWvKxlX2SHEktaDO0-13" value="遍历候选像素" style="whiteSpace=wrap;strokeWidth=2;" vertex="1" parent="1">
          <mxGeometry x="396" y="6093" width="156" height="54" as="geometry" />
        </mxCell>
        <mxCell id="ZkNPWvKxlX2SHEktaDO0-14" value="翻转当前像素" style="whiteSpace=wrap;strokeWidth=2;" vertex="1" parent="1">
          <mxGeometry x="437" y="6197" width="156" height="54" as="geometry" />
        </mxCell>
        <mxCell id="ZkNPWvKxlX2SHEktaDO0-15" value="启用C波段光源" style="whiteSpace=wrap;strokeWidth=2;" vertex="1" parent="1">
          <mxGeometry x="432" y="6301" width="166" height="54" as="geometry" />
        </mxCell>
        <mxCell id="ZkNPWvKxlX2SHEktaDO0-16" value="计算宽带FOM" style="whiteSpace=wrap;strokeWidth=2;" vertex="1" parent="1">
          <mxGeometry x="437" y="6405" width="155" height="54" as="geometry" />
        </mxCell>
        <mxCell id="ZkNPWvKxlX2SHEktaDO0-17" value="FOM提升?" style="rhombus;strokeWidth=2;whiteSpace=wrap;" vertex="1" parent="1">
          <mxGeometry x="453" y="6509" width="122" height="122" as="geometry" />
        </mxCell>
        <mxCell id="ZkNPWvKxlX2SHEktaDO0-18" value="接受翻转" style="whiteSpace=wrap;strokeWidth=2;" vertex="1" parent="1">
          <mxGeometry x="540" y="6704" width="124" height="54" as="geometry" />
        </mxCell>
        <mxCell id="ZkNPWvKxlX2SHEktaDO0-19" value="回退翻转" style="whiteSpace=wrap;strokeWidth=2;" vertex="1" parent="1">
          <mxGeometry x="366" y="6704" width="124" height="54" as="geometry" />
        </mxCell>
        <mxCell id="ZkNPWvKxlX2SHEktaDO0-20" value="所有候选处理完成?" style="rhombus;strokeWidth=2;whiteSpace=wrap;" vertex="1" parent="1">
          <mxGeometry x="410" y="6808" width="188" height="188" as="geometry" />
        </mxCell>
        <mxCell id="ZkNPWvKxlX2SHEktaDO0-21" value="整体提升&lt;阈值?" style="rhombus;strokeWidth=2;whiteSpace=wrap;" vertex="1" parent="1">
          <mxGeometry x="260" y="7069" width="164" height="164" as="geometry" />
        </mxCell>
        <mxCell id="ZkNPWvKxlX2SHEktaDO0-22" value="切换到全域DBS" style="whiteSpace=wrap;strokeWidth=2;" vertex="1" parent="1">
          <mxGeometry x="251" y="7323" width="167" height="54" as="geometry" />
        </mxCell>
        <mxCell id="ZkNPWvKxlX2SHEktaDO0-23" value="遍历所有像素" style="whiteSpace=wrap;strokeWidth=2;" vertex="1" parent="1">
          <mxGeometry x="256" y="7494" width="156" height="54" as="geometry" />
        </mxCell>
        <mxCell id="ZkNPWvKxlX2SHEktaDO0-24" value="翻转当前像素" style="whiteSpace=wrap;strokeWidth=2;" vertex="1" parent="1">
          <mxGeometry x="384" y="7598" width="156" height="54" as="geometry" />
        </mxCell>
        <mxCell id="ZkNPWvKxlX2SHEktaDO0-25" value="计算宽带FOM" style="whiteSpace=wrap;strokeWidth=2;" vertex="1" parent="1">
          <mxGeometry x="385" y="7702" width="155" height="54" as="geometry" />
        </mxCell>
        <mxCell id="ZkNPWvKxlX2SHEktaDO0-26" value="FOM提升?" style="rhombus;strokeWidth=2;whiteSpace=wrap;" vertex="1" parent="1">
          <mxGeometry x="401" y="7829" width="122" height="122" as="geometry" />
        </mxCell>
        <mxCell id="ZkNPWvKxlX2SHEktaDO0-27" value="接受翻转" style="whiteSpace=wrap;strokeWidth=2;" vertex="1" parent="1">
          <mxGeometry x="574" y="8024" width="124" height="54" as="geometry" />
        </mxCell>
        <mxCell id="ZkNPWvKxlX2SHEktaDO0-28" value="回退翻转" style="whiteSpace=wrap;strokeWidth=2;" vertex="1" parent="1">
          <mxGeometry x="400" y="8024" width="124" height="54" as="geometry" />
        </mxCell>
        <mxCell id="ZkNPWvKxlX2SHEktaDO0-29" value="所有像素遍历完成?" style="rhombus;strokeWidth=2;whiteSpace=wrap;" vertex="1" parent="1">
          <mxGeometry x="312" y="8128" width="188" height="188" as="geometry" />
        </mxCell>
        <mxCell id="ZkNPWvKxlX2SHEktaDO0-30" value="本轮有提升?" style="rhombus;strokeWidth=2;whiteSpace=wrap;" vertex="1" parent="1">
          <mxGeometry x="200" y="8389" width="140" height="140" as="geometry" />
        </mxCell>
        <mxCell id="ZkNPWvKxlX2SHEktaDO0-31" value="输出最终结构" style="whiteSpace=wrap;strokeWidth=2;" vertex="1" parent="1">
          <mxGeometry x="192" y="8602" width="156" height="54" as="geometry" />
        </mxCell>
        <mxCell id="ZkNPWvKxlX2SHEktaDO0-32" value="结束" style="rounded=1;whiteSpace=wrap;arcSize=50;strokeWidth=2;" vertex="1" parent="1">
          <mxGeometry x="242" y="8731" width="57" height="39" as="geometry" />
        </mxCell>
        <mxCell id="ZkNPWvKxlX2SHEktaDO0-33" value="梯度矩阵∇FOM:&#xa;由电场E和λ计算得到&#xa;24×24矩阵，元素值g_ij表示敏感度" style="shape=mxgraph.arrows2.arrow;dy=0;dx=0;notch=20;strokeWidth=2;whiteSpace=wrap;spacingLeft=10" vertex="1" parent="1">
          <mxGeometry x="780" y="5771" width="243" height="111" as="geometry" />
        </mxCell>
        <mxCell id="ZkNPWvKxlX2SHEktaDO0-34" value="梯度决策规则：&#xa;1. ∇&gt;δ: 硅区保持/孔区填孔&#xa;2. ∇&lt;-δ: 硅区打孔/孔区保持&#xa;3. |∇|&lt;ε: 跳过&#xa;4. 其它：随机翻转" style="shape=mxgraph.arrows2.arrow;dy=0;dx=0;notch=20;strokeWidth=2;whiteSpace=wrap;spacingLeft=10" vertex="1" parent="1">
          <mxGeometry x="780" y="5932" width="243" height="111" as="geometry" />
        </mxCell>
        <mxCell id="ZkNPWvKxlX2SHEktaDO0-35" value="整体提升阈值:&#xa;本轮所有接受翻转的&#xa;FOM总提升小于阈值" style="shape=mxgraph.arrows2.arrow;dy=0;dx=0;notch=20;strokeWidth=2;whiteSpace=wrap;spacingLeft=10" vertex="1" parent="1">
          <mxGeometry x="780" y="7307" width="181" height="87" as="geometry" />
        </mxCell>
        <mxCell id="ZkNPWvKxlX2SHEktaDO0-36" value="" style="curved=1;startArrow=none;endArrow=block;exitX=0.5;exitY=1;entryX=0.5;entryY=0;rounded=0;fontSize=12;startSize=8;endSize=8;" edge="1" parent="1" source="ZkNPWvKxlX2SHEktaDO0-3" target="ZkNPWvKxlX2SHEktaDO0-4">
          <mxGeometry relative="1" as="geometry">
            <Array as="points" />
          </mxGeometry>
        </mxCell>
        <mxCell id="ZkNPWvKxlX2SHEktaDO0-37" value="" style="curved=1;startArrow=none;endArrow=block;exitX=0.5;exitY=1;entryX=0.5;entryY=0;rounded=0;fontSize=12;startSize=8;endSize=8;" edge="1" parent="1" source="ZkNPWvKxlX2SHEktaDO0-4" target="ZkNPWvKxlX2SHEktaDO0-5">
          <mxGeometry relative="1" as="geometry">
            <Array as="points" />
          </mxGeometry>
        </mxCell>
        <mxCell id="ZkNPWvKxlX2SHEktaDO0-38" value="" style="curved=1;startArrow=none;endArrow=block;exitX=0.5;exitY=1;entryX=0.5;entryY=0;rounded=0;fontSize=12;startSize=8;endSize=8;" edge="1" parent="1" source="ZkNPWvKxlX2SHEktaDO0-5" target="ZkNPWvKxlX2SHEktaDO0-6">
          <mxGeometry relative="1" as="geometry">
            <Array as="points" />
          </mxGeometry>
        </mxCell>
        <mxCell id="ZkNPWvKxlX2SHEktaDO0-39" value="" style="curved=1;startArrow=none;endArrow=block;exitX=0.66;exitY=1;entryX=0.5;entryY=0;rounded=0;fontSize=12;startSize=8;endSize=8;" edge="1" parent="1" source="ZkNPWvKxlX2SHEktaDO0-6" target="ZkNPWvKxlX2SHEktaDO0-7">
          <mxGeometry relative="1" as="geometry">
            <Array as="points">
              <mxPoint x="514" y="5330" />
            </Array>
          </mxGeometry>
        </mxCell>
        <mxCell id="ZkNPWvKxlX2SHEktaDO0-40" value="" style="curved=1;startArrow=none;endArrow=block;exitX=0.5;exitY=1;entryX=0.5;entryY=0;rounded=0;fontSize=12;startSize=8;endSize=8;" edge="1" parent="1" source="ZkNPWvKxlX2SHEktaDO0-7" target="ZkNPWvKxlX2SHEktaDO0-8">
          <mxGeometry relative="1" as="geometry">
            <Array as="points" />
          </mxGeometry>
        </mxCell>
        <mxCell id="ZkNPWvKxlX2SHEktaDO0-41" value="" style="curved=1;startArrow=none;endArrow=block;exitX=0.5;exitY=1;entryX=0.5;entryY=0;rounded=0;fontSize=12;startSize=8;endSize=8;" edge="1" parent="1" source="ZkNPWvKxlX2SHEktaDO0-8" target="ZkNPWvKxlX2SHEktaDO0-9">
          <mxGeometry relative="1" as="geometry">
            <Array as="points" />
          </mxGeometry>
        </mxCell>
        <mxCell id="ZkNPWvKxlX2SHEktaDO0-42" value="" style="curved=1;startArrow=none;endArrow=block;exitX=0.5;exitY=1;entryX=0.5;entryY=0;rounded=0;fontSize=12;startSize=8;endSize=8;" edge="1" parent="1" source="ZkNPWvKxlX2SHEktaDO0-9" target="ZkNPWvKxlX2SHEktaDO0-10">
          <mxGeometry relative="1" as="geometry">
            <Array as="points" />
          </mxGeometry>
        </mxCell>
        <mxCell id="ZkNPWvKxlX2SHEktaDO0-43" value="" style="curved=1;startArrow=none;endArrow=block;exitX=0.45;exitY=1;entryX=0.5;entryY=-0.01;rounded=0;fontSize=12;startSize=8;endSize=8;" edge="1" parent="1" source="ZkNPWvKxlX2SHEktaDO0-10" target="ZkNPWvKxlX2SHEktaDO0-11">
          <mxGeometry relative="1" as="geometry">
            <Array as="points">
              <mxPoint x="494" y="5746" />
            </Array>
          </mxGeometry>
        </mxCell>
        <mxCell id="ZkNPWvKxlX2SHEktaDO0-44" value="" style="curved=1;startArrow=none;endArrow=block;exitX=0.46;exitY=0.99;entryX=0.5;entryY=-0.01;rounded=0;fontSize=12;startSize=8;endSize=8;" edge="1" parent="1" source="ZkNPWvKxlX2SHEktaDO0-11" target="ZkNPWvKxlX2SHEktaDO0-12">
          <mxGeometry relative="1" as="geometry">
            <Array as="points">
              <mxPoint x="474" y="5907" />
            </Array>
          </mxGeometry>
        </mxCell>
        <mxCell id="ZkNPWvKxlX2SHEktaDO0-45" value="" style="curved=1;startArrow=none;endArrow=block;exitX=0.5;exitY=0.99;entryX=0.5;entryY=0;rounded=0;fontSize=12;startSize=8;endSize=8;" edge="1" parent="1" source="ZkNPWvKxlX2SHEktaDO0-12" target="ZkNPWvKxlX2SHEktaDO0-13">
          <mxGeometry relative="1" as="geometry">
            <Array as="points" />
          </mxGeometry>
        </mxCell>
        <mxCell id="ZkNPWvKxlX2SHEktaDO0-46" value="" style="curved=1;startArrow=none;endArrow=block;exitX=0.64;exitY=1;entryX=0.5;entryY=0;rounded=0;fontSize=12;startSize=8;endSize=8;" edge="1" parent="1" source="ZkNPWvKxlX2SHEktaDO0-13" target="ZkNPWvKxlX2SHEktaDO0-14">
          <mxGeometry relative="1" as="geometry">
            <Array as="points">
              <mxPoint x="515" y="6172" />
            </Array>
          </mxGeometry>
        </mxCell>
        <mxCell id="ZkNPWvKxlX2SHEktaDO0-47" value="" style="curved=1;startArrow=none;endArrow=block;exitX=0.5;exitY=1;entryX=0.5;entryY=0;rounded=0;fontSize=12;startSize=8;endSize=8;" edge="1" parent="1" source="ZkNPWvKxlX2SHEktaDO0-14" target="ZkNPWvKxlX2SHEktaDO0-15">
          <mxGeometry relative="1" as="geometry">
            <Array as="points" />
          </mxGeometry>
        </mxCell>
        <mxCell id="ZkNPWvKxlX2SHEktaDO0-48" value="" style="curved=1;startArrow=none;endArrow=block;exitX=0.5;exitY=1;entryX=0.5;entryY=0;rounded=0;fontSize=12;startSize=8;endSize=8;" edge="1" parent="1" source="ZkNPWvKxlX2SHEktaDO0-15" target="ZkNPWvKxlX2SHEktaDO0-16">
          <mxGeometry relative="1" as="geometry">
            <Array as="points" />
          </mxGeometry>
        </mxCell>
        <mxCell id="ZkNPWvKxlX2SHEktaDO0-49" value="" style="curved=1;startArrow=none;endArrow=block;exitX=0.5;exitY=1;entryX=0.51;entryY=0;rounded=0;fontSize=12;startSize=8;endSize=8;" edge="1" parent="1" source="ZkNPWvKxlX2SHEktaDO0-16" target="ZkNPWvKxlX2SHEktaDO0-17">
          <mxGeometry relative="1" as="geometry">
            <Array as="points" />
          </mxGeometry>
        </mxCell>
        <mxCell id="ZkNPWvKxlX2SHEktaDO0-50" value="是" style="curved=1;startArrow=none;endArrow=block;exitX=0.95;exitY=1;entryX=0.5;entryY=0.01;rounded=0;fontSize=12;startSize=8;endSize=8;" edge="1" parent="1" source="ZkNPWvKxlX2SHEktaDO0-17" target="ZkNPWvKxlX2SHEktaDO0-18">
          <mxGeometry relative="1" as="geometry">
            <Array as="points">
              <mxPoint x="602" y="6668" />
            </Array>
          </mxGeometry>
        </mxCell>
        <mxCell id="ZkNPWvKxlX2SHEktaDO0-51" value="否" style="curved=1;startArrow=none;endArrow=block;exitX=0.06;exitY=1;entryX=0.5;entryY=0.01;rounded=0;fontSize=12;startSize=8;endSize=8;" edge="1" parent="1" source="ZkNPWvKxlX2SHEktaDO0-17" target="ZkNPWvKxlX2SHEktaDO0-19">
          <mxGeometry relative="1" as="geometry">
            <Array as="points">
              <mxPoint x="428" y="6668" />
            </Array>
          </mxGeometry>
        </mxCell>
        <mxCell id="ZkNPWvKxlX2SHEktaDO0-52" value="" style="curved=1;startArrow=none;endArrow=block;exitX=0.5;exitY=1.01;entryX=0.91;entryY=0;rounded=0;fontSize=12;startSize=8;endSize=8;" edge="1" parent="1" source="ZkNPWvKxlX2SHEktaDO0-18" target="ZkNPWvKxlX2SHEktaDO0-20">
          <mxGeometry relative="1" as="geometry">
            <Array as="points">
              <mxPoint x="602" y="6783" />
            </Array>
          </mxGeometry>
        </mxCell>
        <mxCell id="ZkNPWvKxlX2SHEktaDO0-53" value="" style="curved=1;startArrow=none;endArrow=block;exitX=0.5;exitY=1.01;entryX=0.18;entryY=0;rounded=0;fontSize=12;startSize=8;endSize=8;" edge="1" parent="1" source="ZkNPWvKxlX2SHEktaDO0-19" target="ZkNPWvKxlX2SHEktaDO0-20">
          <mxGeometry relative="1" as="geometry">
            <Array as="points">
              <mxPoint x="428" y="6783" />
            </Array>
          </mxGeometry>
        </mxCell>
        <mxCell id="ZkNPWvKxlX2SHEktaDO0-54" value="否" style="curved=1;startArrow=none;endArrow=block;exitX=0;exitY=0.18;entryX=0;entryY=0.98;rounded=0;fontSize=12;startSize=8;endSize=8;" edge="1" parent="1" source="ZkNPWvKxlX2SHEktaDO0-20" target="ZkNPWvKxlX2SHEktaDO0-13">
          <mxGeometry relative="1" as="geometry">
            <Array as="points">
              <mxPoint x="318" y="6783" />
              <mxPoint x="318" y="6172" />
            </Array>
          </mxGeometry>
        </mxCell>
        <mxCell id="ZkNPWvKxlX2SHEktaDO0-55" value="是" style="curved=1;startArrow=none;endArrow=block;exitX=0.5;exitY=1;entryX=1;entryY=0.13;rounded=0;fontSize=12;startSize=8;endSize=8;" edge="1" parent="1" source="ZkNPWvKxlX2SHEktaDO0-20" target="ZkNPWvKxlX2SHEktaDO0-21">
          <mxGeometry relative="1" as="geometry">
            <Array as="points">
              <mxPoint x="504" y="7033" />
            </Array>
          </mxGeometry>
        </mxCell>
        <mxCell id="ZkNPWvKxlX2SHEktaDO0-56" value="否" style="curved=1;startArrow=none;endArrow=block;exitX=0.02;exitY=0;entryX=0;entryY=0.96;rounded=0;fontSize=12;startSize=8;endSize=8;" edge="1" parent="1" source="ZkNPWvKxlX2SHEktaDO0-21" target="ZkNPWvKxlX2SHEktaDO0-6">
          <mxGeometry relative="1" as="geometry">
            <Array as="points">
              <mxPoint x="228" y="7033" />
              <mxPoint x="228" y="5330" />
            </Array>
          </mxGeometry>
        </mxCell>
        <mxCell id="ZkNPWvKxlX2SHEktaDO0-57" value="是" style="curved=1;startArrow=none;endArrow=block;exitX=0.47;exitY=1;entryX=0.5;entryY=0;rounded=0;fontSize=12;startSize=8;endSize=8;" edge="1" parent="1" source="ZkNPWvKxlX2SHEktaDO0-21" target="ZkNPWvKxlX2SHEktaDO0-22">
          <mxGeometry relative="1" as="geometry">
            <Array as="points">
              <mxPoint x="334" y="7270" />
            </Array>
          </mxGeometry>
        </mxCell>
        <mxCell id="ZkNPWvKxlX2SHEktaDO0-58" value="" style="curved=1;startArrow=none;endArrow=block;exitX=0.5;exitY=1;entryX=0.5;entryY=-0.01;rounded=0;fontSize=12;startSize=8;endSize=8;" edge="1" parent="1" source="ZkNPWvKxlX2SHEktaDO0-22" target="ZkNPWvKxlX2SHEktaDO0-23">
          <mxGeometry relative="1" as="geometry">
            <Array as="points" />
          </mxGeometry>
        </mxCell>
        <mxCell id="ZkNPWvKxlX2SHEktaDO0-59" value="" style="curved=1;startArrow=none;endArrow=block;exitX=0.93;exitY=0.99;entryX=0.5;entryY=-0.01;rounded=0;fontSize=12;startSize=8;endSize=8;" edge="1" parent="1" source="ZkNPWvKxlX2SHEktaDO0-23" target="ZkNPWvKxlX2SHEktaDO0-24">
          <mxGeometry relative="1" as="geometry">
            <Array as="points">
              <mxPoint x="462" y="7573" />
            </Array>
          </mxGeometry>
        </mxCell>
        <mxCell id="ZkNPWvKxlX2SHEktaDO0-60" value="" style="curved=1;startArrow=none;endArrow=block;exitX=0.5;exitY=0.99;entryX=0.5;entryY=-0.01;rounded=0;fontSize=12;startSize=8;endSize=8;" edge="1" parent="1" source="ZkNPWvKxlX2SHEktaDO0-24" target="ZkNPWvKxlX2SHEktaDO0-25">
          <mxGeometry relative="1" as="geometry">
            <Array as="points" />
          </mxGeometry>
        </mxCell>
        <mxCell id="ZkNPWvKxlX2SHEktaDO0-61" value="" style="curved=1;startArrow=none;endArrow=block;exitX=0.5;exitY=0.99;entryX=0.5;entryY=0;rounded=0;fontSize=12;startSize=8;endSize=8;" edge="1" parent="1" source="ZkNPWvKxlX2SHEktaDO0-25" target="ZkNPWvKxlX2SHEktaDO0-26">
          <mxGeometry relative="1" as="geometry">
            <Array as="points" />
          </mxGeometry>
        </mxCell>
        <mxCell id="ZkNPWvKxlX2SHEktaDO0-62" value="是" style="curved=1;startArrow=none;endArrow=block;exitX=1;exitY=0.78;entryX=0.5;entryY=0;rounded=0;fontSize=12;startSize=8;endSize=8;" edge="1" parent="1" source="ZkNPWvKxlX2SHEktaDO0-26" target="ZkNPWvKxlX2SHEktaDO0-27">
          <mxGeometry relative="1" as="geometry">
            <Array as="points">
              <mxPoint x="636" y="7987" />
            </Array>
          </mxGeometry>
        </mxCell>
        <mxCell id="ZkNPWvKxlX2SHEktaDO0-63" value="否" style="curved=1;startArrow=none;endArrow=block;exitX=0.5;exitY=1;entryX=0.5;entryY=0;rounded=0;fontSize=12;startSize=8;endSize=8;" edge="1" parent="1" source="ZkNPWvKxlX2SHEktaDO0-26" target="ZkNPWvKxlX2SHEktaDO0-28">
          <mxGeometry relative="1" as="geometry">
            <Array as="points" />
          </mxGeometry>
        </mxCell>
        <mxCell id="ZkNPWvKxlX2SHEktaDO0-64" value="" style="curved=1;startArrow=none;endArrow=block;exitX=0.5;exitY=1;entryX=1;entryY=0.24;rounded=0;fontSize=12;startSize=8;endSize=8;" edge="1" parent="1" source="ZkNPWvKxlX2SHEktaDO0-27" target="ZkNPWvKxlX2SHEktaDO0-29">
          <mxGeometry relative="1" as="geometry">
            <Array as="points">
              <mxPoint x="636" y="8103" />
            </Array>
          </mxGeometry>
        </mxCell>
        <mxCell id="ZkNPWvKxlX2SHEktaDO0-65" value="" style="curved=1;startArrow=none;endArrow=block;exitX=0.5;exitY=1;entryX=0.74;entryY=0;rounded=0;fontSize=12;startSize=8;endSize=8;" edge="1" parent="1" source="ZkNPWvKxlX2SHEktaDO0-28" target="ZkNPWvKxlX2SHEktaDO0-29">
          <mxGeometry relative="1" as="geometry">
            <Array as="points">
              <mxPoint x="462" y="8103" />
            </Array>
          </mxGeometry>
        </mxCell>
        <mxCell id="ZkNPWvKxlX2SHEktaDO0-66" value="否" style="curved=1;startArrow=none;endArrow=block;exitX=0.26;exitY=0;entryX=0.55;entryY=0.99;rounded=0;fontSize=12;startSize=8;endSize=8;" edge="1" parent="1" source="ZkNPWvKxlX2SHEktaDO0-29" target="ZkNPWvKxlX2SHEktaDO0-23">
          <mxGeometry relative="1" as="geometry">
            <Array as="points">
              <mxPoint x="349" y="8103" />
              <mxPoint x="349" y="7573" />
            </Array>
          </mxGeometry>
        </mxCell>
        <mxCell id="ZkNPWvKxlX2SHEktaDO0-67" value="是" style="curved=1;startArrow=none;endArrow=block;exitX=0.5;exitY=1;entryX=1;entryY=0.11;rounded=0;fontSize=12;startSize=8;endSize=8;" edge="1" parent="1" source="ZkNPWvKxlX2SHEktaDO0-29" target="ZkNPWvKxlX2SHEktaDO0-30">
          <mxGeometry relative="1" as="geometry">
            <Array as="points">
              <mxPoint x="406" y="8352" />
            </Array>
          </mxGeometry>
        </mxCell>
        <mxCell id="ZkNPWvKxlX2SHEktaDO0-68" value="是" style="curved=1;startArrow=none;endArrow=block;exitX=0.5;exitY=0;entryX=0.29;entryY=0.99;rounded=0;fontSize=12;startSize=8;endSize=8;" edge="1" parent="1" source="ZkNPWvKxlX2SHEktaDO0-30" target="ZkNPWvKxlX2SHEktaDO0-23">
          <mxGeometry relative="1" as="geometry">
            <Array as="points">
              <mxPoint x="270" y="7573" />
            </Array>
          </mxGeometry>
        </mxCell>
        <mxCell id="ZkNPWvKxlX2SHEktaDO0-69" value="否" style="curved=1;startArrow=none;endArrow=block;exitX=0.5;exitY=1;entryX=0.5;entryY=-0.01;rounded=0;fontSize=12;startSize=8;endSize=8;" edge="1" parent="1" source="ZkNPWvKxlX2SHEktaDO0-30" target="ZkNPWvKxlX2SHEktaDO0-31">
          <mxGeometry relative="1" as="geometry">
            <Array as="points" />
          </mxGeometry>
        </mxCell>
        <mxCell id="ZkNPWvKxlX2SHEktaDO0-70" value="" style="curved=1;startArrow=none;endArrow=block;exitX=0.5;exitY=0.99;entryX=0.49;entryY=-0.01;rounded=0;fontSize=12;startSize=8;endSize=8;" edge="1" parent="1" source="ZkNPWvKxlX2SHEktaDO0-31" target="ZkNPWvKxlX2SHEktaDO0-32">
          <mxGeometry relative="1" as="geometry">
            <Array as="points" />
          </mxGeometry>
        </mxCell>
        <mxCell id="ZkNPWvKxlX2SHEktaDO0-71" value="" style="curved=1;startArrow=none;endArrow=none;exitX=0.87;exitY=1;entryX=0;entryY=0.13;rounded=0;fontSize=12;startSize=8;endSize=8;" edge="1" visible="0" parent="1" source="ZkNPWvKxlX2SHEktaDO0-10" target="ZkNPWvKxlX2SHEktaDO0-33">
          <mxGeometry relative="1" as="geometry">
            <Array as="points">
              <mxPoint x="660" y="5746" />
            </Array>
          </mxGeometry>
        </mxCell>
        <mxCell id="ZkNPWvKxlX2SHEktaDO0-72" value="" style="curved=1;startArrow=none;endArrow=none;exitX=0.84;exitY=0.99;entryX=0;entryY=0.15;rounded=0;fontSize=12;startSize=8;endSize=8;" edge="1" visible="0" parent="1" source="ZkNPWvKxlX2SHEktaDO0-11" target="ZkNPWvKxlX2SHEktaDO0-34">
          <mxGeometry relative="1" as="geometry">
            <Array as="points">
              <mxPoint x="650" y="5907" />
            </Array>
          </mxGeometry>
        </mxCell>
        <mxCell id="ZkNPWvKxlX2SHEktaDO0-73" value="" style="curved=1;startArrow=none;endArrow=none;exitX=1;exitY=0.7;entryX=0;entryY=0.13;rounded=0;fontSize=12;startSize=8;endSize=8;" edge="1" visible="0" parent="1" source="ZkNPWvKxlX2SHEktaDO0-21" target="ZkNPWvKxlX2SHEktaDO0-35">
          <mxGeometry relative="1" as="geometry">
            <Array as="points">
              <mxPoint x="640" y="7270" />
            </Array>
          </mxGeometry>
        </mxCell>
      </root>
    </mxGraphModel>
  </diagram>
</mxfile>
